<?xml version="1.0" encoding="iso-8859-1"?>
<!-- Generator: Adobe Illustrator 16.0.0, SVG Export Plug-In . SVG Version: 6.00 Build 0)  -->
<!DOCTYPE svg PUBLIC "-//W3C//DTD SVG 1.1//EN" "http://www.w3.org/Graphics/SVG/1.1/DTD/svg11.dtd">
<svg version="1.1" id="Capa_1" xmlns="http://www.w3.org/2000/svg" xmlns:xlink="http://www.w3.org/1999/xlink" x="0px" y="0px"
	 width="488.072px" height="488.072px" viewBox="0 0 488.072 488.072" style="enable-background:new 0 0 488.072 488.072;"
	 xml:space="preserve">
<g>
	<g>
		<path d="M165.568,367.452c-3.456,0-6.817-1.794-8.669-5.002c-2.762-4.783-1.123-10.897,3.66-13.66l181.438-104.754
			L160.559,139.283c-4.783-2.761-6.422-8.878-3.66-13.66c2.762-4.783,8.877-6.42,13.66-3.66l196.438,113.413
			c3.094,1.786,5,5.087,5,8.66c0,3.572-1.906,6.874-5,8.66L170.559,366.11C168.984,367.02,167.264,367.452,165.568,367.452z"/>
	</g>
	<g>
		<path d="M244.036,488.072c-65.184,0-126.467-25.384-172.56-71.478C25.385,370.503,0,309.221,0,244.036
			c0-65.185,25.385-126.467,71.476-172.56C117.569,25.385,178.851,0,244.036,0c65.185,0,126.467,25.385,172.559,71.476
			c46.094,46.092,71.478,107.375,71.478,172.56c0,65.185-25.384,126.467-71.478,172.56
			C370.503,462.688,309.22,488.072,244.036,488.072z M244.036,20c-59.842,0-116.102,23.304-158.417,65.619S20,184.194,20,244.036
			s23.304,116.103,65.619,158.417c42.315,42.315,98.575,65.619,158.417,65.619s116.102-23.304,158.417-65.619
			c42.314-42.314,65.618-98.575,65.618-158.417s-23.304-116.102-65.618-158.417S303.878,20,244.036,20z"/>
	</g>
</g>
<g>
</g>
<g>
</g>
<g>
</g>
<g>
</g>
<g>
</g>
<g>
</g>
<g>
</g>
<g>
</g>
<g>
</g>
<g>
</g>
<g>
</g>
<g>
</g>
<g>
</g>
<g>
</g>
<g>
</g>
</svg>
